<?xml version="1.0" encoding="UTF-8"?>
<svg id="Layer_1" data-name="Layer 1" xmlns="http://www.w3.org/2000/svg" viewBox="0 0 3654.85 1556.27">
  <defs>
    <style>
      .cls-1 {
        letter-spacing: 0em;
      }

      .cls-2 {
        letter-spacing: 0em;
      }

      .cls-3, .cls-4 {
        fill: #7b7b7b;
      }

      .cls-3, .cls-4, .cls-5, .cls-6, .cls-7 {
        stroke: #231f20;
        stroke-miterlimit: 10;
      }

      .cls-3, .cls-5 {
        font-family: DINCondensed-Bold, 'DIN Condensed';
        font-size: 300px;
        font-weight: 700;
      }

      .cls-8 {
        letter-spacing: 0em;
      }

      .cls-5, .cls-6 {
        fill: #a91e22;
      }

      .cls-9 {
        font-family: Niramit-Italic, Niramit;
        font-size: 60px;
        font-style: italic;
      }

      .cls-9, .cls-10, .cls-11 {
        fill: #231f20;
      }

      .cls-12 {
        letter-spacing: 0em;
      }

      .cls-13 {
        letter-spacing: 0em;
      }

      .cls-7 {
        fill: #fff;
      }

      .cls-10 {
        font-size: 200px;
      }

      .cls-10, .cls-11 {
        font-family: MinionVariableConcept-Roman, 'Minion Variable Concept';
        font-variation-settings: 'wght' 400, 'opsz' 11;
      }

      .cls-14 {
        letter-spacing: -.08em;
      }

      .cls-15 {
        letter-spacing: -.08em;
      }

      .cls-16 {
        letter-spacing: -.06em;
      }

      .cls-17 {
        letter-spacing: -.06em;
      }

      .cls-18 {
        letter-spacing: -.07em;
      }

      .cls-19 {
        letter-spacing: -.02em;
      }

      .cls-20 {
        letter-spacing: -.02em;
      }

      .cls-21 {
        letter-spacing: -.04em;
      }

      .cls-22 {
        letter-spacing: -.05em;
      }

      .cls-23 {
        letter-spacing: -.04em;
      }

      .cls-24 {
        letter-spacing: -.04em;
      }

      .cls-25 {
        letter-spacing: -.04em;
      }

      .cls-26 {
        letter-spacing: -.04em;
      }

      .cls-27 {
        letter-spacing: 0em;
      }

      .cls-28 {
        letter-spacing: 0em;
      }

      .cls-29 {
        letter-spacing: 0em;
      }

      .cls-30 {
        letter-spacing: 0em;
      }

      .cls-31 {
        letter-spacing: 0em;
      }

      .cls-32 {
        letter-spacing: 0em;
      }

      .cls-11 {
        font-size: 100px;
      }

      .cls-33 {
        letter-spacing: 0em;
      }

      .cls-34 {
        letter-spacing: 0em;
      }

      .cls-35 {
        letter-spacing: 0em;
      }

      .cls-36 {
        letter-spacing: 0em;
      }

      .cls-37 {
        letter-spacing: 0em;
      }
    </style>
  </defs>
  <rect class="cls-6" x="75.5" y="1351.69" width="3500" height="60"/>
  <circle class="cls-6" cx="75.5" cy="1381.69" r="75"/>
  <circle class="cls-7" cx="75.5" cy="1381.69" r="50"/>
  <circle class="cls-6" cx="3579.35" cy="1388.59" r="75"/>
  <circle class="cls-7" cx="3579.35" cy="1388.59" r="50"/>
  <rect class="cls-4" x="27.42" y="694.39" width="903" height="60"/>
  <circle class="cls-4" cx="75.5" cy="717.49" r="75"/>
  <circle class="cls-7" cx="75.5" cy="717.49" r="50"/>
  <circle class="cls-4" cx="930.42" cy="724.39" r="75"/>
  <circle class="cls-7" cx="930.42" cy="724.39" r="50"/>
  <text class="cls-10" transform="translate(686.68 165)"><tspan class="cls-24" x="0" y="0">A</tspan><tspan class="cls-33" x="114.4" y="0">v</tspan><tspan class="cls-8" x="205.6" y="0">er</tspan><tspan class="cls-30" x="366.4" y="0">ag</tspan><tspan class="cls-8" x="546.2" y="0">e E</tspan><tspan class="cls-30" x="796.99" y="0">s</tspan><tspan class="cls-8" x="869.79" y="0">tim</tspan><tspan class="cls-32" x="1148.19" y="0">a</tspan><tspan class="cls-20" x="1235.79" y="0">t</tspan><tspan class="cls-35" x="1293.19" y="0">e</tspan><tspan x="1381.38" y="0">d Life</tspan><tspan class="cls-29" x="1846.77" y="0">s</tspan><tspan class="cls-28" x="1920.57" y="0">p</tspan><tspan x="2025.97" y="0">an</tspan></text>
  <text class="cls-11" transform="translate(1208.27 321.57)"><tspan class="cls-18" x="0" y="0">T</tspan><tspan x="56.6" y="0">r</tspan><tspan class="cls-31" x="93.8" y="0">a</tspan><tspan class="cls-29" x="137.7" y="0">ffi</tspan><tspan class="cls-12" x="218.4" y="0">c</tspan><tspan class="cls-34" x="261.2" y="0">k</tspan><tspan class="cls-36" x="310.6" y="0">e</tspan><tspan class="cls-1" x="354.7" y="0">d </tspan><tspan class="cls-37" x="431.49" y="0">v</tspan><tspan class="cls-12" x="477.39" y="0">s. </tspan><tspan class="cls-24" x="559.39" y="0">A</tspan><tspan class="cls-34" x="616.59" y="0">v</tspan><tspan x="662.19" y="0">er</tspan><tspan class="cls-31" x="742.59" y="0">ag</tspan><tspan class="cls-1" x="832.49" y="0">e </tspan><tspan class="cls-23" x="898.99" y="0">P</tspan><tspan x="952.99" y="0">e</tspan><tspan class="cls-27" x="996.19" y="0">r</tspan><tspan class="cls-34" x="1032.79" y="0">s</tspan><tspan class="cls-27" x="1070.48" y="0">o</tspan><tspan x="1121.48" y="0">n</tspan></text>
  <text class="cls-3" transform="translate(124.97 642.49)"><tspan x="0" y="0">20 </tspan><tspan class="cls-22" x="278.99" y="0">Y</tspan><tspan x="378.89" y="0">ears</tspan></text>
  <text class="cls-5" transform="translate(128.62 1306.69)"><tspan x="0" y="0">78 </tspan><tspan class="cls-22" x="278.99" y="0">Y</tspan><tspan x="378.89" y="0">ears</tspan></text>
  <text class="cls-9" transform="translate(.5 867.49)"><tspan x="0" y="0">Kid who </tspan><tspan class="cls-26" x="223.14" y="0">w</tspan><tspan class="cls-13" x="263.46" y="0">as s</tspan><tspan class="cls-21" x="371.09" y="0">e</tspan><tspan class="cls-2" x="400.97" y="0">x t</tspan><tspan class="cls-16" x="469.31" y="0">r</tspan><tspan x="489.17" y="0">affic</tspan><tspan class="cls-14" x="609.95" y="0">k</tspan><tspan class="cls-19" x="634.07" y="0">e</tspan><tspan class="cls-2" x="665.15" y="0">d at 13</tspan></text>
  <text class="cls-9" transform="translate(1.64 1527.71)"><tspan class="cls-15" x="0" y="0">A</tspan><tspan class="cls-25" x="34.62" y="0">v</tspan><tspan x="64.68" y="0">e</tspan><tspan class="cls-17" x="97.26" y="0">r</tspan><tspan class="cls-13" x="117.12" y="0">age U.S. Citi</tspan><tspan class="cls-19" x="434.51" y="0">z</tspan><tspan class="cls-2" x="464.69" y="0">en</tspan></text>
</svg>